<svg width="20" height="20" viewBox="0 0 20 20" fill="none" xmlns="http://www.w3.org/2000/svg">
<mask id="mask0_2401_28121" style="mask-type:alpha" maskUnits="userSpaceOnUse" x="0" y="0" width="20" height="20">
<rect x="0.25" y="0.5" width="19" height="19" fill="white"/>
</mask>
<g mask="url(#mask0_2401_28121)">
<path fill-rule="evenodd" clip-rule="evenodd" d="M10.5848 2.04019C10.8073 2.26304 10.9248 2.54131 10.9375 2.875V4.0625H8.5625V2.875C8.57477 2.54092 8.69233 2.26265 8.91519 2.04019C9.13804 1.81773 9.41631 1.70017 9.75 1.6875C10.0841 1.69977 10.3624 1.81733 10.5848 2.04019ZM14.5 14.75V8.8125C14.4628 7.46429 13.9989 6.34487 13.1082 5.45425C12.2176 4.56362 11.0982 4.09971 9.75 4.0625C8.40179 4.09971 7.28237 4.56362 6.39175 5.45425C5.50112 6.34487 5.03721 7.46429 5 8.8125V14.75H14.5ZM13.9526 4.60994C15.072 5.72935 15.6503 7.13021 15.6875 8.8125V15.9375H3.8125V8.8125C3.84971 7.13021 4.42802 5.72935 5.54744 4.60994C6.66685 3.49052 8.06771 2.91221 9.75 2.875C11.4323 2.91221 12.8331 3.49052 13.9526 4.60994ZM17.4688 14.75C17.8646 14.75 18.0625 14.9479 18.0625 15.3438C18.0625 15.7396 17.8646 15.9375 17.4688 15.9375H2.03125C1.63542 15.9375 1.4375 15.7396 1.4375 15.3438C1.4375 14.9479 1.63542 14.75 2.03125 14.75H17.4688ZM10.9375 17.125C10.9252 17.4591 10.8077 17.7374 10.5848 17.9598C10.362 18.1823 10.0837 18.2937 9.75 18.2941C9.41631 18.2945 9.13804 18.1831 8.91519 17.9598C8.69233 17.7366 8.57477 17.4583 8.5625 17.125H10.9375Z" fill="black"/>
</g>
</svg>
