<svg width="26" height="24" viewBox="0 0 26 24" fill="none" xmlns="http://www.w3.org/2000/svg">
<path opacity="0.7" fill-rule="evenodd" clip-rule="evenodd" d="M20.072 4.31521C20.124 4.40844 20.215 4.47503 20.332 4.47503C23.452 4.47503 26 7.08546 26 10.2819V18.1931C26 21.3896 23.452 24 20.332 24H5.668C2.535 24 0 21.3896 0 18.1931V10.2819C0 7.08546 2.535 4.47503 5.668 4.47503C5.772 4.47503 5.876 4.42175 5.915 4.31521L5.993 4.15538C6.03781 4.05864 6.08381 3.95928 6.1305 3.85841C6.46307 3.13994 6.83101 2.34507 7.059 1.87791C7.657 0.679245 8.671 0.0133185 9.932 0H16.055C17.316 0.0133185 18.343 0.679245 18.941 1.87791C19.1458 2.29745 19.4577 2.97325 19.7584 3.6246C19.8204 3.75899 19.882 3.89235 19.942 4.0222L20.072 4.31521ZM19.1232 9.42936C19.1232 10.0953 19.6432 10.628 20.2932 10.628C20.9432 10.628 21.4762 10.0953 21.4762 9.42936C21.4762 8.76344 20.9432 8.21738 20.2932 8.21738C19.6432 8.21738 19.1232 8.76344 19.1232 9.42936ZM10.7506 11.4937C11.3616 10.8677 12.1546 10.5347 12.9996 10.5347C13.8446 10.5347 14.6376 10.8677 15.2356 11.4803C15.8336 12.093 16.1586 12.9054 16.1586 13.7711C16.1456 15.5558 14.7416 17.0075 12.9996 17.0075C12.1546 17.0075 11.3616 16.6746 10.7636 16.0619C10.1656 15.4493 9.84059 14.6368 9.84059 13.7711V13.7578C9.82759 12.9187 10.1526 12.1063 10.7506 11.4937ZM16.6009 17.4737C15.6779 18.4193 14.4039 19.0054 12.9999 19.0054C11.6349 19.0054 10.3609 18.4593 9.38586 17.4737C8.42386 16.4748 7.89086 15.1696 7.89086 13.7712C7.87786 12.386 8.41086 11.0808 9.37286 10.0819C10.3479 9.08305 11.6349 8.53699 12.9999 8.53699C14.3649 8.53699 15.6519 9.08305 16.6139 10.0686C17.5759 11.0675 18.1089 12.386 18.1089 13.7712C18.0959 15.2229 17.5239 16.5281 16.6009 17.4737Z" fill="#030229"/>
</svg>
