<svg width="24" height="24" viewBox="0 0 24 24" fill="none" xmlns="http://www.w3.org/2000/svg">
<path d="M17.3962 9.63555C19.4954 10.3667 21 12.3431 21 14.6667C21 15.5564 20.7786 16.4162 20.3617 17.1842C20.3239 17.2538 20.2564 17.3702 20.1572 17.5376L20.4654 18.6533C20.6026 19.1511 20.1405 19.6078 19.6365 19.472L18.505 19.1671L18.3736 19.2436C17.5358 19.7398 16.5769 20.0014 15.6 20C13.9548 20 12.4815 19.2733 11.4908 18.1273C11.0958 18.1907 10.6963 18.2224 10.2961 18.2222C8.96003 18.2222 7.67483 17.8711 6.55253 17.216C6.51383 17.1933 6.4173 17.1382 6.26498 17.0516L4.566 17.5027C4.06155 17.6367 3.60075 17.1782 3.74025 16.6811L4.19993 15.0404C4.08495 14.8526 3.97311 14.6628 3.86445 14.4713C3.2959 13.4404 2.99865 12.285 3 11.1111C3 7.18155 6.2688 4 10.2961 4C13.6693 4 16.5817 6.25022 17.3798 9.402C17.3998 9.48044 17.4045 9.55933 17.3962 9.63533V9.63555ZM15.9596 9.34489C15.1826 6.98689 12.9108 5.33333 10.2961 5.33333C7.00995 5.33333 4.35 7.92222 4.35 11.1111C4.35 12.0751 4.59255 13.0036 5.0502 13.834C5.11095 13.9442 5.26485 14.2029 5.50628 14.5996C5.55343 14.6771 5.58413 14.7632 5.59651 14.8528C5.60889 14.9424 5.60268 15.0335 5.57828 15.1207L5.35643 15.9122L6.18398 15.6924C6.35645 15.6466 6.54027 15.6702 6.69518 15.758C6.99623 15.9287 7.17555 16.0309 7.23945 16.0682C8.16527 16.6078 9.22109 16.8913 10.2961 16.8889C10.4259 16.8889 10.5553 16.8849 10.684 16.8769C10.364 16.183 10.1989 15.4292 10.2 14.6667C10.2 11.7211 12.6176 9.33333 15.6 9.33333C15.7208 9.33333 15.8408 9.33733 15.9596 9.34489ZM18.7799 17.6169C18.7561 17.5307 18.7501 17.4408 18.7622 17.3523C18.7743 17.2638 18.8043 17.1786 18.8504 17.1018C18.9603 16.9208 19.0675 16.7382 19.1719 16.554C19.4869 15.9736 19.6512 15.3252 19.65 14.6667C19.65 12.4576 17.8367 10.6667 15.6 10.6667C13.3633 10.6667 11.55 12.4576 11.55 14.6667C11.55 16.8758 13.3633 18.6667 15.6 18.6667C16.3324 18.668 17.0512 18.4721 17.6792 18.1C17.7258 18.0724 17.854 17.9984 18.0698 17.8742C18.1472 17.8297 18.2328 17.8009 18.3217 17.7894C18.4105 17.7779 18.5007 17.784 18.5871 17.8073L18.8521 17.8787L18.7799 17.6169ZM8.175 10C7.93631 10 7.70739 9.90635 7.53861 9.73965C7.36982 9.57295 7.275 9.34686 7.275 9.11111C7.275 8.87536 7.36982 8.64927 7.53861 8.48257C7.70739 8.31587 7.93631 8.22222 8.175 8.22222C8.4137 8.22222 8.64262 8.31587 8.8114 8.48257C8.98018 8.64927 9.075 8.87536 9.075 9.11111C9.075 9.34686 8.98018 9.57295 8.8114 9.73965C8.64262 9.90635 8.4137 10 8.175 10ZM12.225 10C11.9863 10 11.7574 9.90635 11.5886 9.73965C11.4198 9.57295 11.325 9.34686 11.325 9.11111C11.325 8.87536 11.4198 8.64927 11.5886 8.48257C11.7574 8.31587 11.9863 8.22222 12.225 8.22222C12.4637 8.22222 12.6926 8.31587 12.8614 8.48257C13.0302 8.64927 13.125 8.87536 13.125 9.11111C13.125 9.34686 13.0302 9.57295 12.8614 9.73965C12.6926 9.90635 12.4637 10 12.225 10ZM14.025 14.2222C13.846 14.2222 13.6743 14.152 13.5477 14.027C13.4211 13.9019 13.35 13.7324 13.35 13.5556C13.35 13.3787 13.4211 13.2092 13.5477 13.0841C13.6743 12.9591 13.846 12.8889 14.025 12.8889C14.204 12.8889 14.3757 12.9591 14.5023 13.0841C14.6289 13.2092 14.7 13.3787 14.7 13.5556C14.7 13.7324 14.6289 13.9019 14.5023 14.027C14.3757 14.152 14.204 14.2222 14.025 14.2222ZM17.175 14.2222C16.996 14.2222 16.8243 14.152 16.6977 14.027C16.5711 13.9019 16.5 13.7324 16.5 13.5556C16.5 13.3787 16.5711 13.2092 16.6977 13.0841C16.8243 12.9591 16.996 12.8889 17.175 12.8889C17.354 12.8889 17.5257 12.9591 17.6523 13.0841C17.7789 13.2092 17.85 13.3787 17.85 13.5556C17.85 13.7324 17.7789 13.9019 17.6523 14.027C17.5257 14.152 17.354 14.2222 17.175 14.2222Z" fill="#246EE8"/>
</svg>
