<svg width="24" height="24" viewBox="0 0 24 24" fill="none" xmlns="http://www.w3.org/2000/svg">
<path d="M12.4425 18.8617C12.2207 18.8617 12.1102 18.8617 11.9997 18.8617C11.8899 18.8617 11.7786 18.8617 11.6681 18.8617H11.5575C11.447 18.8617 11.2259 18.8617 11.1154 18.9735C10.6733 19.4242 9.8996 19.6493 8.9048 19.6493C8.24164 19.6493 7.68898 19.536 7.13628 19.3117C6.69418 19.0867 6.47311 18.861 6.47311 18.5242C6.47311 18.1867 6.69414 17.9617 7.24684 17.736C7.57843 17.6242 7.68894 17.5117 7.68894 17.2852C7.68894 17.061 7.68894 16.836 7.57841 16.7227C7.35736 16.5 7.2468 16.1617 7.02575 15.9375C6.91521 15.7125 6.69418 15.5992 6.47313 15.5992C6.25208 15.5992 6.14154 15.7125 5.92047 15.8257C5.69944 16.05 5.58888 16.1618 5.47835 16.1618C5.36781 16.1618 5.25805 15.8257 5.25805 15.2633C5.25805 14.7008 5.36783 14.025 5.47762 13.3493C5.69869 12.675 6.03026 12.1125 6.58289 11.55C6.69347 11.4383 6.80399 11.2125 6.80399 10.9875C6.80399 10.8758 6.80399 10.8758 6.80399 10.7633C6.80399 10.425 6.9145 10.0883 7.13555 9.75079C7.24611 9.63829 7.24611 9.52582 7.24611 9.4133V9.30077C7.24682 7.95003 7.68819 6.82504 8.68373 5.81253C9.56799 4.79928 10.6732 4.35002 11.9997 4.35002C13.326 4.35002 14.4314 4.80002 15.4261 5.81253C16.3111 6.82504 16.8637 7.95003 16.8637 9.29928C16.8637 9.29928 16.8637 9.29928 16.8637 9.41179C16.8637 9.52431 16.8637 9.63678 16.9735 9.74928C17.1945 10.0868 17.3051 10.4235 17.3051 10.7618C17.3051 10.8743 17.3051 10.8743 17.3051 10.986C17.3051 11.211 17.3051 11.4367 17.5261 11.5485C18.0788 12.111 18.4104 12.6735 18.6314 13.3477C18.8525 14.0235 18.963 14.6992 18.8525 15.2618C18.8525 15.8242 18.7419 16.0485 18.5216 16.1603C18.411 16.1603 18.2998 16.0485 18.0787 15.8242C17.969 15.7117 17.7471 15.5977 17.5261 15.5977H17.4163C17.1945 15.5977 16.9735 15.7109 16.8637 15.936C16.7531 16.2734 16.5314 16.4985 16.311 16.7227C16.2005 16.8359 16.0892 17.0609 16.2005 17.2852C16.2005 17.5117 16.4216 17.6234 16.5314 17.7359C17.0833 17.9624 17.3051 18.1874 17.3051 18.5249C17.3051 18.8616 17.0833 19.0874 16.6419 19.3124C16.1998 19.5366 15.5367 19.6499 14.8734 19.6499C13.8786 19.6499 13.2155 19.4241 12.6628 18.9741C12.7733 18.9741 12.5523 18.8616 12.4425 18.8616V18.8617ZM14.984 21C16.0893 21 16.9735 20.775 17.6367 20.3258C18.2999 19.875 18.742 19.3125 18.742 18.5257C18.742 18.0757 18.6322 17.7375 18.4112 17.4007C18.5217 17.4007 18.742 17.4007 18.8532 17.2875C19.5164 17.0633 19.8481 16.5008 19.9585 15.6C20.0691 14.8133 19.9585 13.9125 19.6277 12.9007C19.4059 12.1125 18.9645 11.4382 18.4119 10.7632C18.4119 10.2008 18.3013 9.75073 18.0802 9.18827C18.0802 7.50075 17.5276 6.03826 16.3125 4.80002C15.0945 3.56255 13.6576 3 11.9997 3C10.3417 3 8.90482 3.56248 7.68896 4.79924C6.58292 6.03748 5.92045 7.5 5.92045 9.18748C5.69942 9.63748 5.58886 10.2 5.58886 10.7625V10.875C4.92571 11.4375 4.59408 12.225 4.37305 12.8999C4.04144 13.9117 3.93093 14.8125 4.04144 15.5992C4.152 16.5 4.5941 17.0625 5.14674 17.2867C5.25728 17.2867 5.47835 17.3999 5.58886 17.3999C5.36781 17.7367 5.25726 18.0749 5.25726 18.5249C5.25726 19.1999 5.58886 19.8749 6.36257 20.3249C7.02575 20.775 7.90997 20.9999 8.90474 20.9999C10.01 20.9999 11.0048 20.775 11.668 20.2125H12.2207C12.9951 20.7749 13.8786 20.9999 14.9839 20.9999L14.984 21Z" fill="#246EE8"/>
</svg>
