<svg width="36" height="36" viewBox="0 0 36 36" fill="none" xmlns="http://www.w3.org/2000/svg">
<path fill-rule="evenodd" clip-rule="evenodd" d="M29.9999 4.5H21.75V7.5H26.3786L22.2398 11.6388C20.2832 9.99207 17.7575 9 15 9C8.7868 9 3.75 14.0368 3.75 20.25C3.75 26.4632 8.7868 31.5 15 31.5C21.2132 31.5 26.25 26.4632 26.25 20.25C26.25 17.8768 25.5152 15.6753 24.2607 13.8605L28.5 9.62121V14.25H31.5V4.5H29.9999ZM21.1306 14.7292C21.138 14.7376 21.1455 14.746 21.1531 14.7543C22.4572 16.2133 23.25 18.1391 23.25 20.25C23.25 24.8063 19.5563 28.5 15 28.5C10.4437 28.5 6.75 24.8063 6.75 20.25C6.75 15.6937 10.4437 12 15 12C17.4333 12 19.6206 13.0535 21.1306 14.7292Z" fill="#AF4D5F"/>
</svg>
