<svg width="22" height="22" viewBox="0 0 22 22" fill="none" xmlns="http://www.w3.org/2000/svg">
<path fill-rule="evenodd" clip-rule="evenodd" d="M2.29102 11C2.29102 6.19054 6.18987 2.29169 10.9993 2.29169C15.8088 2.29169 19.7077 6.19054 19.7077 11V11.2886C19.7077 15.9387 15.938 19.7084 11.2879 19.7084H2.29102V11ZM10.9993 4.12502C7.20239 4.12502 4.12435 7.20306 4.12435 11V17.875H11.2879C14.9255 17.875 17.8744 14.9262 17.8744 11.2886V11C17.8744 7.20306 14.7963 4.12502 10.9993 4.12502ZM15.1243 8.25002V10.0834H6.87435V8.25002H15.1243ZM10.9993 14.2084H6.87435V12.375H10.9993V14.2084Z" fill="#3D43A1"/>
</svg>
