<svg width="22" height="22" viewBox="0 0 22 22" fill="none" xmlns="http://www.w3.org/2000/svg">
<path fill-rule="evenodd" clip-rule="evenodd" d="M14.4175 2.4258C14.9545 1.88883 15.8251 1.88883 16.3621 2.4258L19.2417 5.3054L19.3112 5.46766L18.4687 5.82875C19.3112 5.46766 19.3115 5.46845 19.3119 5.46926L19.3126 5.47095L19.3141 5.47456L19.3175 5.48279C19.32 5.48872 19.3227 5.49552 19.3257 5.5032C19.3318 5.51855 19.3389 5.53741 19.3469 5.55972C19.3628 5.60433 19.3821 5.66277 19.4026 5.73466C19.4435 5.87847 19.489 6.07598 19.5217 6.32399C19.5875 6.8215 19.6009 7.51543 19.4283 8.37844C19.0818 10.1108 18.001 12.4541 15.2277 15.2274C12.4545 18.0006 10.1112 19.0814 8.3788 19.4279C7.5158 19.6005 6.82186 19.5871 6.32436 19.5214C6.07635 19.4886 5.87884 19.4431 5.73502 19.4022C5.66314 19.3818 5.6047 19.3625 5.56008 19.3465C5.53778 19.3386 5.51892 19.3314 5.50356 19.3254C5.49589 19.3224 5.48908 19.3196 5.48316 19.3172L5.47493 19.3138L5.47131 19.3122L5.46963 19.3115C5.46882 19.3112 5.46802 19.3108 5.82912 18.4683L5.46802 19.3108L5.30576 19.2413L2.42617 16.3617C1.88919 15.8247 1.88919 14.9541 2.42617 14.4172L5.01889 11.8244C5.55586 11.2875 6.42646 11.2875 6.96343 11.8244L8.76508 13.6261C8.87845 13.5625 9.00794 13.4864 9.15135 13.3968C9.74716 13.0244 10.5826 12.4184 11.5007 11.5003C12.4188 10.5822 13.0247 9.74679 13.3971 9.15098C13.4867 9.00758 13.5628 8.87809 13.6264 8.76472L11.8248 6.96307C11.2878 6.4261 11.2878 5.5555 11.8248 5.01852L14.4175 2.4258ZM14.7416 8.58352C15.5927 8.92396 15.5926 8.92423 15.5925 8.9245L15.5923 8.92507L15.5918 8.92633L15.5906 8.92929L15.5874 8.93698L15.5781 8.95936C15.5705 8.97736 15.5601 9.00144 15.5467 9.03128C15.52 9.09097 15.4815 9.17375 15.4298 9.27705C15.3266 9.4836 15.1707 9.77239 14.9518 10.1226C14.5139 10.8232 13.8235 11.7703 12.7971 12.7967C11.7706 13.8231 10.8236 14.5136 10.123 14.9514C9.77275 15.1703 9.48397 15.3262 9.27741 15.4295C9.17412 15.4811 9.09134 15.5196 9.03165 15.5463C9.0018 15.5597 8.97772 15.5701 8.95973 15.5777L8.93735 15.5871L8.92965 15.5902L8.92669 15.5914L8.92544 15.5919L8.92486 15.5921C8.92459 15.5922 8.92433 15.5923 8.58389 14.7412L8.92433 15.5923L8.36311 15.8168L5.99116 13.4449L4.04662 15.3894L6.31662 17.6594C6.37926 17.6741 6.4621 17.6903 6.56441 17.7038C6.87207 17.7445 7.36309 17.7614 8.01926 17.6302C9.32523 17.369 11.3571 16.5053 13.9314 13.931C16.5056 11.3568 17.3694 9.32486 17.6306 8.01889C17.7618 7.36272 17.7448 6.8717 17.7042 6.56404C17.6907 6.46173 17.6744 6.3789 17.6598 6.31626L15.3898 4.04625L13.4452 5.9908L15.8172 8.36275L15.5927 8.92396L14.7416 8.58352Z" fill="white"/>
</svg>
