<svg width="20" height="20" viewBox="0 0 20 20" fill="none" xmlns="http://www.w3.org/2000/svg">
<mask id="mask0_2401_28081" style="mask-type:alpha" maskUnits="userSpaceOnUse" x="0" y="0" width="20" height="20">
<rect width="20" height="20" fill="white"/>
</mask>
<g mask="url(#mask0_2401_28081)">
<path d="M15.3314 3.51556C15.3314 3.33306 15.3899 3.18327 15.507 3.06619C15.6241 2.94911 15.7706 2.89056 15.9464 2.89056C16.1222 2.89056 16.2687 2.94911 16.3858 3.06619C16.5029 3.18327 16.5681 3.33306 16.5814 3.51556V6.42556C16.5685 6.59473 16.5033 6.73806 16.3858 6.85556C16.2683 6.97306 16.1249 7.03827 15.9558 7.05119H13.0458C12.8633 7.03827 12.7135 6.97306 12.5964 6.85556C12.4793 6.73806 12.4208 6.59161 12.4208 6.41619C12.4208 6.24077 12.4793 6.09431 12.5964 5.97681C12.7135 5.85931 12.8633 5.80077 13.0458 5.80119H14.862C13.8462 4.73327 12.6516 4.08556 11.2783 3.85806C9.90495 3.63056 8.57349 3.85515 7.28391 4.53181C6.00766 5.23515 5.08974 6.22473 4.53016 7.50056C3.97057 8.7764 3.85995 10.1306 4.19828 11.5631C4.57578 12.9693 5.31474 14.0989 6.41516 14.9518C7.51557 15.8047 8.79495 16.2441 10.2533 16.2699C12.0241 16.2308 13.4956 15.622 14.6677 14.4437C15.8397 13.2654 16.4518 11.7908 16.5039 10.0199H17.7539C17.7018 12.1424 16.9693 13.9099 15.5564 15.3224C14.1435 16.7349 12.376 17.4674 10.2539 17.5199C8.13141 17.4679 6.36391 16.7354 4.95141 15.3224C3.53891 13.9095 2.80641 12.142 2.75391 10.0199C2.76682 8.50952 3.17057 7.14223 3.96516 5.91806C4.75974 4.6939 5.84703 3.77598 7.22703 3.16431C8.62037 2.56515 10.0364 2.38619 11.4752 2.62744C12.9139 2.86869 14.1997 3.49036 15.3327 4.49244H15.3314V3.51556Z" fill="#606266"/>
</g>
</svg>
