<svg width="24" height="24" viewBox="0 0 24 24" fill="none" xmlns="http://www.w3.org/2000/svg">
<g opacity="0.8">
<path d="M16.5005 12C16.5005 14.4853 14.4858 16.5 12.0005 16.5C9.51521 16.5 7.50049 14.4853 7.50049 12C7.50049 9.51472 9.51521 7.5 12.0005 7.5C14.4858 7.5 16.5005 9.51472 16.5005 12ZM15.0005 12C15.0005 10.3431 13.6573 9 12.0005 9C10.3436 9 9.00049 10.3431 9.00049 12C9.00049 13.6569 10.3436 15 12.0005 15C13.6573 15 15.0005 13.6569 15.0005 12Z" fill="white" fill-opacity="0.9"/>
<path d="M12.0005 1.875L21.0938 6.9375V17.0625L12.0005 22.125L2.90723 17.0625V6.9375L12.0005 1.875ZM4.40723 7.8192V16.1808L12.0005 20.4082L19.5938 16.1808V7.8192L12.0005 3.5918L4.40723 7.8192Z" fill="white" fill-opacity="0.9"/>
</g>
</svg>
