<svg width="24" height="24" viewBox="0 0 24 24" fill="none" xmlns="http://www.w3.org/2000/svg">
<g opacity="0.8">
<path d="M14.898 8.03661C15.533 8.72424 16.4423 9.15487 17.4521 9.15487C19.3718 9.15487 20.9281 7.59862 20.9281 5.6789C20.9281 3.75918 19.3718 2.20294 17.4521 2.20294C15.5324 2.20294 13.9761 3.75918 13.9761 5.6789C13.9761 6.04944 14.0341 6.40644 14.1415 6.74132L9.10254 9.68194C8.46748 8.9942 7.55815 8.5635 6.54823 8.5635C4.62851 8.5635 3.07227 10.1197 3.07227 12.0395C3.07227 13.9592 4.62851 15.5154 6.54823 15.5154C7.5583 15.5154 8.46774 15.0846 9.10282 14.3967L14.1428 17.3336C14.0346 17.6696 13.9761 18.028 13.9761 18.4C13.9761 20.3197 15.5324 21.876 17.4521 21.876C19.3718 21.876 20.9281 20.3197 20.9281 18.4C20.9281 16.4803 19.3718 14.9241 17.4521 14.9241C16.4438 14.9241 15.5357 15.3534 14.9008 16.0392L9.85903 13.1012C9.96628 12.7665 10.0242 12.4098 10.0242 12.0395C10.0242 11.669 9.96624 11.3121 9.85891 10.9773L14.898 8.03661ZM17.4521 3.70294C18.5434 3.70294 19.4281 4.58761 19.4281 5.6789C19.4281 6.7702 18.5434 7.65487 17.4521 7.65487C16.7416 7.65487 16.1187 7.27985 15.7704 6.71697C15.7631 6.70214 15.7551 6.68747 15.7467 6.67295C15.7381 6.65831 15.7292 6.64406 15.7198 6.63022C15.5645 6.34802 15.4761 6.02378 15.4761 5.6789C15.4761 4.58761 16.3608 3.70294 17.4521 3.70294ZM8.23224 11.0052C8.23908 11.0188 8.24637 11.0322 8.25411 11.0454C8.26191 11.0588 8.27006 11.0718 8.27853 11.0845C8.43508 11.3676 8.52419 11.6931 8.52419 12.0395C8.52419 12.3859 8.43504 12.7115 8.27844 12.9946C8.26991 13.0073 8.26171 13.0205 8.25387 13.0339C8.24625 13.047 8.23907 13.0602 8.23232 13.0736C7.88459 13.6386 7.26041 14.0154 6.54823 14.0154C5.45693 14.0154 4.57227 13.1308 4.57227 12.0395C4.57227 10.9482 5.45693 10.0635 6.54823 10.0635C7.26035 10.0635 7.88449 10.4402 8.23224 11.0052ZM15.4761 18.4C15.4761 18.0736 15.5553 17.7657 15.6954 17.4944C15.7174 17.4667 15.7377 17.4371 15.756 17.4056C15.7737 17.3753 15.7889 17.3442 15.8019 17.3127C16.1554 16.7773 16.7625 16.4241 17.4521 16.4241C18.5434 16.4241 19.4281 17.3087 19.4281 18.4C19.4281 19.4913 18.5434 20.376 17.4521 20.376C16.3608 20.376 15.4761 19.4913 15.4761 18.4Z" fill="white"/>
</g>
</svg>
