<svg width="24" height="24" viewBox="0 0 24 24" fill="none" xmlns="http://www.w3.org/2000/svg">
<g opacity="0.8">
<path d="M14.6258 12.3741L15.4677 12.6063C16.9663 13.0194 18.5993 12.6435 19.7371 11.5058C20.7454 10.4975 21.1553 9.09512 20.9481 7.74932L19.3634 9.33393C18.4848 10.2126 17.0602 10.2126 16.1815 9.33398L15.5451 8.6976C14.6664 7.81893 14.6663 6.39427 15.545 5.51557L17.1297 3.93088C15.7839 3.72361 14.3815 4.13347 13.3731 5.14182C12.2355 6.27949 11.8595 7.9124 12.2726 9.41093L12.5046 10.2527L3.7981 18.9592L5.91942 21.0806L14.6258 12.3741ZM18.3659 2.69475C18.8609 2.86177 19.3395 3.09499 19.7877 3.39427L16.6057 6.57623C16.3128 6.86913 16.3128 7.34402 16.6057 7.63691L17.2421 8.27328C17.535 8.56616 18.0099 8.56616 18.3028 8.27327L21.4847 5.09134C21.784 5.53955 22.0172 6.01814 22.1842 6.51317C22.8826 8.58314 22.4236 10.9406 20.7977 12.5664C19.2563 14.1079 17.0572 14.6005 15.069 14.0523L6.98008 22.1412C6.3943 22.727 5.44455 22.727 4.85876 22.1412L2.73744 20.0199C2.15166 19.4341 2.15166 18.4844 2.73744 17.8986L10.8265 9.80953C10.2785 7.82141 10.7711 5.62251 12.3125 4.08116C13.9383 2.45529 16.2959 1.99631 18.3659 2.69475Z" fill="white" fill-opacity="0.9"/>
</g>
</svg>
