<svg width="24" height="24" viewBox="0 0 24 24" fill="none" xmlns="http://www.w3.org/2000/svg">
<g opacity="0.8">
<path d="M9.00005 1.5C9.78863 1.5 10.5335 1.68724 11.1926 2.01968L10.2472 3.2379C9.86135 3.08439 9.44056 3 9.00005 3C7.13608 3 5.62504 4.51104 5.62504 6.375C5.62504 8.21575 7.09869 9.71232 8.9306 9.7493V11.2495C6.27022 11.2124 4.12504 9.0442 4.12504 6.375C4.12504 3.68261 6.30765 1.5 9.00005 1.5Z" fill="white"/>
<path d="M0.811394 14.1539C3.28376 12.9963 6.02884 12.3417 8.9306 12.3314V13.8314C6.27631 13.8416 3.76607 14.4357 1.5 15.4879V18H4.28563V19.5H0.749999C0.335786 19.5 0 19.1642 0 18.75V15.463C0 14.9058 0.306805 14.3902 0.811394 14.1539Z" fill="white"/>
<path d="M14.9999 12.4703C12.3075 12.4703 10.1249 10.2877 10.1249 7.59531C10.1249 4.90292 12.3075 2.72031 14.9999 2.72031C17.6923 2.72031 19.8749 4.90292 19.8749 7.59531C19.8749 10.2877 17.6923 12.4703 14.9999 12.4703ZM14.9999 10.9703C16.8638 10.9703 18.3749 9.45927 18.3749 7.59531C18.3749 5.73135 16.8638 4.22031 14.9999 4.22031C13.1359 4.22031 11.6249 5.73135 11.6249 7.59531C11.6249 9.45927 13.1359 10.9703 14.9999 10.9703Z" fill="white"/>
<path d="M24 17.2767C24 16.7196 23.6932 16.2039 23.1886 15.9677C20.6965 14.8008 17.9274 14.1451 15 14.1451C12.0726 14.1451 9.30341 14.8008 6.81134 15.9677C6.30675 16.2039 5.99994 16.7196 5.99994 17.2767V21C5.99994 21.4142 6.33573 21.75 6.74994 21.75H23.25C23.6642 21.75 24 21.4142 24 21V17.2767ZM22.5 17.3016V20.25H7.49994V17.3016C9.78576 16.2403 12.32 15.6451 15 15.6451C17.6799 15.6451 20.2142 16.2403 22.5 17.3016Z" fill="white"/>
</g>
</svg>
