<svg width="18" height="20" viewBox="0 0 18 20" fill="none" xmlns="http://www.w3.org/2000/svg">
<path d="M14.8386 5.72794C14.2597 5.50222 10.106 4.00215 8.4576 3.4107C5.03338 2.16779 1.07801 0.303423 0.468718 0.0262683C0.418725 0.00363734 0.36328 -0.00461418 0.30875 0.00246173C0.254221 0.00953765 0.20282 0.0316539 0.160451 0.0662699C0.13123 0.0872213 0.106477 0.11365 0.0876042 0.144045C0.0687317 0.174441 0.0561096 0.208209 0.0504591 0.24342C-0.169525 1.56633 0.32978 3.85358 1.54837 4.69218C2.28648 5.20649 7.14928 6.7737 9.13636 7.39516C9.19715 7.41516 9.16531 7.49516 9.1161 7.48373C7.04942 7.02086 1.61784 5.77795 1.50785 5.76794C1.39786 5.75794 1.31826 5.77795 1.23866 5.85652C1.20604 5.89032 1.18186 5.93116 1.16804 5.9758C1.15422 6.02044 1.15115 6.06765 1.15906 6.11367C1.42825 7.59231 2.84657 9.50668 4.08398 9.7524C4.8134 9.90098 7.82804 9.82241 9.07703 9.79241C9.13636 9.79241 9.1465 9.87098 9.08716 9.88098C7.67897 10.0781 4.25331 10.591 4.16358 10.611C4.11816 10.618 4.07521 10.6361 4.03859 10.6635C4.00196 10.6909 3.9728 10.7269 3.95372 10.7682C3.93091 10.8109 3.91898 10.8584 3.91898 10.9067C3.91898 10.955 3.93091 11.0026 3.95372 11.0453C4.16358 11.4796 4.77287 12.0611 4.77287 12.0611C6.11159 13.4126 7.56898 13.2554 7.93803 13.1854C8.51003 13.0573 9.06832 12.8755 9.60528 12.6425C9.6458 12.624 9.67619 12.6625 9.66606 12.6925L8.88744 15.4541C8.87731 15.4841 8.89757 15.5141 8.92651 15.5141L11.2537 15.5341C11.2827 15.5341 11.3029 15.5627 11.2928 15.5912L9.93525 19.9428C9.91499 19.9914 9.98591 20.0214 10.0149 19.9814L15.1179 13.5811C15.1382 13.5511 15.1179 13.5111 15.0774 13.5111H12.6518C12.6112 13.5111 12.591 13.4726 12.6112 13.4426C12.9412 12.9097 15.0774 9.4181 15.7663 8.06662C15.9863 7.68089 16.076 7.12943 15.9255 6.71513C15.7865 6.30083 15.458 5.9751 14.8386 5.72937V5.72794Z" fill="white"/>
<path d="M16.2881 5.72794C15.7092 5.50222 11.5556 4.00215 9.90714 3.4107C6.48292 2.16779 2.52756 0.303423 1.91826 0.0262683C1.86827 0.00363734 1.81282 -0.00461418 1.75829 0.00246173C1.70376 0.00953765 1.65236 0.0316539 1.60999 0.0662699C1.58077 0.0872213 1.55602 0.11365 1.53715 0.144045C1.51827 0.174441 1.50565 0.208209 1.5 0.24342C1.28002 1.56633 1.77932 3.85358 2.99792 4.69218C3.73602 5.20649 8.59882 6.7737 10.5859 7.39516C10.6467 7.41516 10.6149 7.49516 10.5656 7.48373C8.49896 7.02086 3.06738 5.77795 2.95739 5.76794C2.8474 5.75794 2.7678 5.77795 2.6882 5.85652C2.65558 5.89032 2.6314 5.93116 2.61758 5.9758C2.60376 6.02044 2.60069 6.06765 2.6086 6.11367C2.87779 7.59231 4.29611 9.50668 5.53352 9.7524C6.26294 9.90098 9.27758 9.82241 10.5266 9.79241C10.5859 9.79241 10.596 9.87098 10.5367 9.88098C9.12852 10.0781 5.70285 10.591 5.61312 10.611C5.5677 10.618 5.52475 10.6361 5.48813 10.6635C5.4515 10.6909 5.42234 10.7269 5.40326 10.7682C5.38045 10.8109 5.36853 10.8584 5.36853 10.9067C5.36853 10.955 5.38045 11.0026 5.40326 11.0453C5.61312 11.4796 6.22241 12.0611 6.22241 12.0611C7.56113 13.4126 9.01852 13.2554 9.38757 13.1854C9.95958 13.0573 10.5179 12.8755 11.0548 12.6425C11.0953 12.624 11.1257 12.6625 11.1156 12.6925L10.337 15.4541C10.3268 15.4841 10.3471 15.5141 10.3761 15.5141L12.7032 15.5341C12.7322 15.5341 12.7525 15.5627 12.7423 15.5912L11.3848 19.9428C11.3645 19.9914 11.4354 20.0214 11.4644 19.9814L16.5674 13.5811C16.5877 13.5511 16.5674 13.5111 16.5269 13.5111H14.1013C14.0608 13.5111 14.0405 13.4726 14.0608 13.4426C14.3908 12.9097 16.5269 9.4181 17.2158 8.06662C17.4358 7.68089 17.5255 7.12943 17.375 6.71513C17.2361 6.30083 16.9075 5.9751 16.2881 5.72937V5.72794Z" fill="white" fill-opacity="0.5"/>
</svg>
