<svg width="24" height="24" viewBox="0 0 24 24" fill="none" xmlns="http://www.w3.org/2000/svg">
<g opacity="0.8">
<path d="M6 11.25L16.5 11.25V12.75L6 12.75V11.25Z" fill="white" fill-opacity="0.9"/>
<path d="M15 15L6 15V16.5H15V15Z" fill="white" fill-opacity="0.9"/>
<path d="M3 4.5C3 3.67157 3.67157 3 4.5 3H19.5C20.3284 3 21 3.67157 21 4.5V19.5C21 20.3284 20.3284 21 19.5 21H4.5C3.67157 21 3 20.3284 3 19.5V4.5ZM4.5 4.5L4.5 7.5H19.5V4.5H4.5ZM4.5 9L4.5 19.5H19.5V9H4.5Z" fill="white" fill-opacity="0.9"/>
</g>
</svg>
