<svg width="36" height="36" viewBox="0 0 36 36" fill="none" xmlns="http://www.w3.org/2000/svg">
<path fill-rule="evenodd" clip-rule="evenodd" d="M11.25 13.5C11.25 9.77208 14.2721 6.75 18 6.75C21.7279 6.75 24.75 9.77208 24.75 13.5C24.75 17.2279 21.7279 20.25 18 20.25C14.2721 20.25 11.25 17.2279 11.25 13.5ZM18 3.75C12.6152 3.75 8.25 8.11522 8.25 13.5C8.25 18.3747 11.8274 22.4138 16.5 23.1353V25.5H11.25V28.5H16.5V33H19.5V28.5H24.75V25.5H19.5V23.1353C24.1726 22.4138 27.75 18.3747 27.75 13.5C27.75 8.11522 23.3848 3.75 18 3.75Z" fill="#246EE8"/>
</svg>
